<svg width="25" height="41" viewBox="0 0 25 41" fill="none" xmlns="http://www.w3.org/2000/svg">
  <path d="M12.5 0C5.59644 0 0 5.59644 0 12.5C0 14.4276 0.40007 16.2563 1.11106 17.9212C1.11106 17.9212 1.21225 18.1848 1.23404 18.2285C3.16723 22.4126 8.24434 29.2222 11.5 34.0001C11.8139 34.4738 12.1461 34.9707 12.5 35.5C12.8539 34.9707 13.1861 34.4738 13.5 34.0001C16.7557 29.2222 21.8328 22.4126 23.766 18.2285C23.7878 18.1848 23.8889 17.9212 23.8889 17.9212C24.5999 16.2563 25 14.4276 25 12.5C25 5.59644 19.4036 0 12.5 0Z" fill="#2563EB"/>
  <circle cx="12.5" cy="12.5" r="5.5" fill="white"/>
</svg> 