<svg width="200" height="50" viewBox="0 0 200 50" fill="none" xmlns="http://www.w3.org/2000/svg">
  <!-- Aether Symbol -->
  <path d="M25 5C13.954 5 5 13.954 5 25C5 36.046 13.954 45 25 45C36.046 45 45 36.046 45 25C45 13.954 36.046 5 25 5Z" fill="#38BDF8"/>
  <path d="M25 15L35 30H15L25 15Z" fill="white"/>
  <path d="M25 35C27.7614 35 30 32.7614 30 30C30 27.2386 27.7614 25 25 25C22.2386 25 20 27.2386 20 30C20 32.7614 22.2386 35 25 35Z" fill="white"/>
  
  <!-- Text: Aether Zenith -->
  <path d="M60 35L65 20H68L73 35H70L69 31H64L63 35H60ZM65 29H68L66.5 24L65 29Z" fill="white"/>
  <path d="M75 35V20H78V32H84V35H75Z" fill="white"/>
  <path d="M86 35V20H89V32H95V35H86Z" fill="white"/>
  <path d="M97 35V20H107V23H100V26H106V29H100V32H107V35H97Z" fill="white"/>
  <path d="M109 35V20H112V32H118V35H109Z" fill="white"/>
  
  <path d="M125 35L130 20H133L138 35H135L134 31H129L128 35H125ZM130 29H133L131.5 24L130 29Z" fill="white"/>
  <path d="M140 35V20H143V32H149V35H140Z" fill="white"/>
  <path d="M151 35V20H154V35H151Z" fill="white"/>
  <path d="M156 35V20H159V32H165V35H156Z" fill="white"/>
  <path d="M167 35V20H177V23H170V26H176V29H170V32H177V35H167Z" fill="white"/>
  <path d="M179 35V20H182V32H188V35H179Z" fill="white"/>
  
  <!-- Tech -->
  <path d="M190 35V20H200V23H196V35H193V23H190V20H193V23H190Z" fill="#38BDF8"/>
</svg> 